<svg xmlns="http://www.w3.org/2000/svg" xmlns:xlink="http://www.w3.org/1999/xlink" viewBox="0 0 1130.82 860.05"><defs><style>.cls-1{isolation:isolate;}.cls-2{fill:#f1eff8;}.cls-16,.cls-21,.cls-25,.cls-3,.cls-4,.cls-5,.cls-8{mix-blend-mode:overlay;}.cls-3,.cls-4,.cls-5{opacity:0.7;}.cls-3{fill:url(#linear-gradient);}.cls-4{fill:url(#linear-gradient-2);}.cls-5{fill:url(#linear-gradient-3);}.cls-6{fill:#7ee8cc;}.cls-7{fill:#fff;}.cls-16,.cls-21,.cls-25,.cls-8{opacity:0.75;}.cls-8{fill:url(#linear-gradient-4);}.cls-22,.cls-9{opacity:0.1;}.cls-10{fill:#477cca;}.cls-11{fill:#00d4b3;}.cls-12{fill:#fdfdfd;}.cls-13{fill:#252495;}.cls-14{fill:#07229c;}.cls-15{fill:#6c38b8;}.cls-16{fill:url(#linear-gradient-5);}.cls-17{fill:#21b1b5;}.cls-18{fill:#e2f0f1;}.cls-19{fill:#13316d;}.cls-20{fill:#d6e6ea;}.cls-21{fill:url(#linear-gradient-6);}.cls-23{fill:#22c0db;}.cls-24{fill:#f0eff4;}.cls-25{fill:url(#linear-gradient-7);}.cls-26{fill:#b67539;}.cls-27{fill:#2a195b;}</style><linearGradient id="linear-gradient" x1="616.22" y1="96.47" x2="903.47" y2="575.22" gradientUnits="userSpaceOnUse"><stop offset="0" stop-color="#fff"/><stop offset="0.21" stop-color="#c8c8c8"/><stop offset="0.76" stop-color="#393939"/><stop offset="1"/></linearGradient><linearGradient id="linear-gradient-2" x1="364.77" y1="217.46" x2="283.1" y2="458.24" xlink:href="#linear-gradient"/><linearGradient id="linear-gradient-3" x1="561.82" y1="601.97" x2="533.66" y2="919.24" xlink:href="#linear-gradient"/><linearGradient id="linear-gradient-4" x1="778.22" y1="188.61" x2="1062.34" y2="466.42" gradientUnits="userSpaceOnUse"><stop offset="0.01" stop-color="#fff"/><stop offset="0.03" stop-color="#eaeaea"/><stop offset="0.1" stop-color="#b9b9b9"/><stop offset="0.18" stop-color="#8d8d8d"/><stop offset="0.25" stop-color="#676767"/><stop offset="0.34" stop-color="#474747"/><stop offset="0.43" stop-color="#2d2d2d"/><stop offset="0.52" stop-color="#191919"/><stop offset="0.63" stop-color="#0b0b0b"/><stop offset="0.77" stop-color="#020202"/><stop offset="1"/></linearGradient><linearGradient id="linear-gradient-5" x1="577.15" y1="298.11" x2="918.1" y2="746.39" xlink:href="#linear-gradient-4"/><linearGradient id="linear-gradient-6" x1="849.06" y1="579.93" x2="1046.44" y2="808.36" xlink:href="#linear-gradient-4"/><linearGradient id="linear-gradient-7" x1="216.93" y1="276.63" x2="325.06" y2="463.67" xlink:href="#linear-gradient-4"/></defs><g class="cls-1"><g id="Layer_1" data-name="Layer 1"><g id="Loan_Tax_calculator" data-name="Loan Tax calculator"><path class="cls-2" d="M1009.83,599c19.28,32.07,24.62,60-14.37,113.9-118.28,163.23-783.53,113-890.6,54.67C67.72,747.36,83,719,114,685.59c38.81-42.06,102.42-92,117.57-143.78,7.45-25.58,3.07-51.6-21.9-77.36C95.93,347.22,89.88,186.71,236.37,145.88c16.65-4.64,33.21-5.52,49.94-3.85C399.69,152.37,517.7,274.5,674.79,97.7a280.38,280.38,0,0,1,34.79-32.95c118.71-95.41,299.64-87.52,338,37.94C1079.05,205,909.51,260,934.92,430.54a323.86,323.86,0,0,0,15.86,63.61C968.56,543.21,994,572.56,1009.83,599Z"/><path class="cls-3" d="M934.92,430.54a323.86,323.86,0,0,0,15.86,63.61c-34.26-16.38-67-37.24-104.09-45.47C753,427.83,661.83,491.52,566.24,499.41a246.59,246.59,0,0,1-155.16-39.87c-7.63-5.08-15.07-10.69-20.33-18.13a57.08,57.08,0,0,1-8.85-21.29c-7-32.86,7-67.47,29.61-92.17s52.84-41.09,83.41-54.76c68.25-30.41,146.23-53.71,188.37-115.39,19.63-28.83,26.55-60.1,26.29-93.05,118.71-95.41,299.64-87.52,338,37.94C1079.05,205,909.51,260,934.92,430.54Z"/><path class="cls-4" d="M510.17,423.71c-20.15,17.61-47.75,24.62-74.47,25.14-30,.62-61.25-6-89.11,5.17-40.13,16-60.1,63.17-99.09,81.92a96.13,96.13,0,0,1-15.95,5.87c7.45-25.58,3.07-51.6-21.9-77.36C95.93,347.22,89.88,186.71,236.37,145.88c16.65-4.64,33.21-5.52,49.94-3.85,8.59,35.57,30.41,67.2,53.45,94.88,5.43,6.58,10.95,13.06,18,17.79,8.5,5.87,18.57,8.85,28.47,12a620.12,620.12,0,0,1,93.22,38.47c21,10.77,42.85,24.27,51.61,46.26C540.92,376.31,530.23,406.1,510.17,423.71Z"/><path class="cls-5" d="M995.46,712.92C939.39,790.29,760.66,819.64,576.58,823c-8.67.17-17.44.26-26.2.26-16.29.17-32.68.09-48.89-.26-30.84-.53-61.33-1.76-90.94-3.51-142.29-8.5-264.77-29.52-305.69-51.87C67.72,747.36,83,719,114,685.59c18.66-10.34,39.69-16,60.45-21.29C245,646.07,319,627.94,389.87,644.58c15.86,3.68,31.19,9.12,46.53,14.55,10,3.59,20,7.18,30.05,10.34a395.59,395.59,0,0,0,52.74,12.7c96.38,16.91,197.92.26,290.18-34.34,59.23-22.17,118.19-52.13,181.45-50.56a140.38,140.38,0,0,1,19,1.75C1029.11,631.09,1034.45,659,995.46,712.92Z"/><path class="cls-6" d="M1017,134.1c-46.75,17.48-79.36,86.63-78.38,146.73l1,47.54,4.72,226.09a42.67,42.67,0,0,1-43.61,43.61L689.34,593V365.49c0-215.87,66.59-241.21,126.11-246.71,10.41-.79,20.62-1.18,30.25-1.77l170.11,9.63C1019.93,126.64,1020.91,132.53,1017,134.1Z"/><path class="cls-7" d="M754.7,170.77c-11.53,13.47-17.88,30.12-13.35,30.12s64.27,5.72,73.16,1.76,23-31.88,11.19-31.88Z"/><path class="cls-7" d="M728.2,252.86s-9.17,15.39-4.58,18.37,181.93,6.95,185.75,2.48,13.76-21.85,0-20.85S728.2,252.86,728.2,252.86Z"/><path class="cls-7" d="M726.41,300.64s-6.37,16.77-3.18,20,126.35,7.58,129,2.71,9.55-23.81,0-22.72S726.41,300.64,726.41,300.64Z"/><path class="cls-7" d="M727.56,347.28s-8.17,16.77-4.08,20,161.93,7.57,165.33,2.7,12.25-23.8,0-22.72S727.56,347.28,727.56,347.28Z"/><path class="cls-7" d="M728.2,418.09s-9.17,16.77-4.58,20,181.93,7.57,185.75,2.7,13.76-23.8,0-22.72S728.2,418.09,728.2,418.09Z"/><path class="cls-7" d="M728.2,471.58s-9.17,16.77-4.58,20,181.93,7.57,185.75,2.71,13.76-23.81,0-22.73S728.2,471.58,728.2,471.58Z"/><path class="cls-8" d="M1017,134.1c-46.75,17.48-79.36,86.63-78.38,146.73l1,47.54c-8.25,10.8-14.34,23.37-20,35.75q-20.62,43.61-41.25,87c-5.31,11.19-11.2,23-21.61,29.66-13.75,8.64-31.43,5.89-47.14,2.94-24-4.32-51.07-11-62.27-32.6-6.88-13.36-5.5-29.66-1.57-44.2,12.18-43.8,46.16-78,66.19-118.84C836.66,238,838,177.71,818.59,125.46a40.47,40.47,0,0,0-3.14-6.68c10.41-.79,20.62-1.18,30.25-1.77l170.11,9.63C1019.93,126.64,1020.91,132.53,1017,134.1Z"/><path class="cls-9" d="M863.06,355.23c0-14.05-10.42-25.45-23.27-25.45H566.4c-12.85,0-34.85,23.92-34.85,38l.11,3.26c0,.34-.11.65-.11,1V737.45c0,12.89,11.36,23.34,25.37,23.34H826.09c.32,0,.61-.07.93-.09l1.18.09a10.31,10.31,0,0,0,2.82-.46,24.6,24.6,0,0,0,19.29-16.26c7.17-9.37,12.75-20.54,12.75-27.61Z"/><path class="cls-10" d="M114.73,666.43c13,9.06,60.58,9.85,73.77-3.47-2.07-11.37-44.57-30.23-69.39-11.35a226.43,226.43,0,0,1,23.2-50.39c6.28,8.94,49.84,10.59,61.28-1-1.6-8.74-32.86-23-53.07-11,10.4-13.87,22.61-25.68,36.7-34.52,2.33,7.74,33.45,19,44.59,13.52.91-6-15.3-21.12-31.61-20.55a111.11,111.11,0,0,1,22.18-7.49c5.76,5.76,25.91,12.28,33.67,8.47.88-5.82-18.72-22.57-33.68-13.56h0A117.33,117.33,0,0,0,204,540.6c.67-13.48-17.72-21.53-21.6-18.93-.11,6.58,10.46,18,16.85,21a123.59,123.59,0,0,0-29,18.28c1.5-24.69-32.17-39.46-39.27-34.71-.21,13.19,23.18,37.09,34,39.38a169.33,169.33,0,0,0-31.49,40.66c-1.44-26.37-37.49-41.8-45.34-36.55-.25,15.75,28.68,44.76,40.45,45.61a264.66,264.66,0,0,0-22,63.56c-5-29.88-45.93-47-55.15-40.83-.33,20.69,40.36,60,52.36,55.68a307.29,307.29,0,0,0-4,42.67l5.07.33A302.41,302.41,0,0,1,114.73,666.43Z"/><path class="cls-11" d="M103.05,760.47c16.6-24.51,46.69-59.26,36.81-67.55s-18.39,11.49-24.6,4.13,2.82-18,20.48-35.71,11-40.14.2-44.75-19.53,34.16-31.53,33.48,16.18-33.28,4.09-54.26-22-22.76-24.61-5S78.27,620.4,67.62,612.4s-18.37-30.94-32.34-19.33S50.41,619.94,40.13,633s-32.3-.85-38.58,6.62S9.08,664.91,25.25,666s30.46.38,28.49,12.67-21.44-3.25-32.12,5.14S47,715.31,66.15,719.15s11.25,10.6-.07,10.55c-19.56-.09-4,13.2,11.43,16.57C93.23,749.7,93.13,775.13,103.05,760.47Z"/><path class="cls-12" d="M105.29,724a8.47,8.47,0,0,0,3.44-1.61l.7-.5c1.68-1.13,3.31-2.32,4.86-3.53,3.66-2.87,7.16-5.74,9.7-9.26a.85.85,0,0,0-.19-1.2.86.86,0,0,0-1.2.2c-2.41,3.33-5.81,6.11-9.37,8.91-1.51,1.19-3.12,2.35-4.76,3.46-.24.16-.49.34-.74.53a8,8,0,0,1-2.51,1.29A133.74,133.74,0,0,0,104,708.11s0,0,0-.05,0,0,0-.07a142.93,142.93,0,0,0-2.81-15,114.17,114.17,0,0,0-5-15c2.8.08,5.49-1.17,7.8-2.56A70.25,70.25,0,0,0,125.57,655a.86.86,0,1,0-1.41-1A68.6,68.6,0,0,1,103,674c-2.3,1.38-5,2.68-7.59,2.29-.17-.41-.35-.91-.51-1.31-4.88-11.75-10.74-24.37-18.29-36.19,3.4-3.2,6.9-6.52,9.27-10.71a48.8,48.8,0,0,0,2.25-4.75l3.27-7.61a.86.86,0,0,0-1.58-.68l-3.27,7.61a44.64,44.64,0,0,1-2.17,4.59c-2.19,3.86-5.48,7-8.7,10.07a117.47,117.47,0,0,0-18.85-22.59.86.86,0,0,0-1.16,1.26h0c11.35,10.26,19.88,23,26.74,36a9.76,9.76,0,0,1-2.9,1.29c-6,1.85-12.29,3.76-18.67,3.6a38.79,38.79,0,0,1-6.61-.8,59.6,59.6,0,0,1-18-6.7.85.85,0,0,0-1.17.32.86.86,0,0,0,.15,1,1,1,0,0,0,.17.12,61.18,61.18,0,0,0,18.49,6.9,42.34,42.34,0,0,0,6.91.83c6.66.17,13-1.79,19.21-3.68a12.14,12.14,0,0,0,3.17-1.41C87,661,90.37,668.44,93.34,675.6a125.83,125.83,0,0,1,6.14,17.78,140.79,140.79,0,0,1,2.65,14c-6.84.5-14.64.87-22.21-.39-5.75-1-13.85-3.34-20.11-9.23a2.56,2.56,0,0,1-.33-.32.86.86,0,0,0-1.21,0,.85.85,0,0,0,0,1.21c.11.11.22.22.34.32,5.21,4.91,12.46,8.26,21,9.68,7.8,1.3,15.77.91,22.74.4,2.85,21.61.49,42.58-7.11,60.3a.88.88,0,0,0,.45,1.13.86.86,0,0,0,1.13-.45C102.77,756.19,105.6,740.43,105.29,724Z"/><path class="cls-13" d="M104.89,767.57c22.06-3,56.61-3.51,56.31-13.2s-15.66-4.56-14.64-11.73,11.51-7.45,30.28-6.41,28-13.94,25.18-22.31-28.93,6.17-34.56-.9,26.76-7.6,32.46-24.89,1.73-23.75-9.54-16.29-19.39,11.67-20.24,1.68,8.14-25.79-5.37-27.8-7.48,21.94-20,22.72-15.71-18.53-23-18.3-10.4,16.88-2.9,26.48,15,17.27,7.17,22.33-8.92-13.66-19-15.44-4.93,30,2.49,42.68-.3,11.61-6,5.24c-9.74-11-9.41,4.36-3.56,14.71C106,756.67,91.7,769.35,104.89,767.57Z"/><path class="cls-12" d="M126.49,750.53a6.27,6.27,0,0,0,2.62,1.12l.63.15c1.48.37,3,.69,4.42,1a36.48,36.48,0,0,0,10,.8.64.64,0,1,0-.13-1.28,35.74,35.74,0,0,1-9.69-.79c-1.42-.25-2.88-.57-4.33-.93l-.66-.16a5.71,5.71,0,0,1-2-.75,101.91,101.91,0,0,0,7.29-7.78l0,0s0,0,0-.05a109.78,109.78,0,0,0,7-9.1,87.38,87.38,0,0,0,5.87-10.33,11.16,11.16,0,0,0,5.34,3.09,52.86,52.86,0,0,0,22.32,1.89.64.64,0,1,0-.16-1.28,51.6,51.6,0,0,1-21.78-1.84c-1.92-.6-4-1.45-5.08-3.11.14-.3.33-.65.47-.94a174.8,174.8,0,0,0,11.13-28.38,35.83,35.83,0,0,0,10.64-.17,38,38,0,0,0,3.8-1.12l5.9-2a.65.65,0,1,0-.41-1.23l-5.91,2a34.11,34.11,0,0,1-3.65,1.08,33.9,33.9,0,0,1-10,.17,88.52,88.52,0,0,0,3.22-21.88.64.64,0,0,0-.64-.65.65.65,0,0,0-.65.63h0c-.07,11.5-2.93,22.67-6.81,33a7.38,7.38,0,0,1-2.17-1c-4.06-2.46-8.27-5-11.37-8.66a30.16,30.16,0,0,1-2.87-4.11,44.94,44.94,0,0,1-5.25-13.44.64.64,0,0,0-1.27.12.38.38,0,0,0,0,.15,45.93,45.93,0,0,0,5.4,13.82,30.11,30.11,0,0,0,3,4.29c3.24,3.82,7.53,6.42,11.68,8.93a9.23,9.23,0,0,0,2.38,1.07c-2.25,5.87-4.79,11.49-7.31,16.74A94.28,94.28,0,0,1,140.71,732a105.8,105.8,0,0,1-6.49,8.47,70.62,70.62,0,0,1-10.91-12.64c-2.35-3.71-5.07-9.44-4.9-15.9a1.92,1.92,0,0,1,0-.35.65.65,0,0,0-1.29,0c0,.12,0,.23,0,.35-.14,5.38,1.62,11.12,5.1,16.62a72.07,72.07,0,0,0,11.16,12.95C122.7,753.84,109.76,763,96,767.65a.65.65,0,0,0-.44.59.62.62,0,0,0,0,.23.63.63,0,0,0,.81.4A84,84,0,0,0,126.49,750.53Z"/><path class="cls-13" d="M826.06,319.73V712.58c0,7.86-5.7,20-12.77,30.25-5.89,8.25-13,15.13-18.66,17.09-.2.2-.2.2-.4.2a7.91,7.91,0,0,1-2.94.59l-1.38-.2L529.45,740.28c-13,0-23.38-12.38-23.38-27.7l-7.85-257.32L494.68,337l-.2-3.53c0-15.33,22-41.45,35-41.45H802.88a6.54,6.54,0,0,1,2,.2C816.63,293.4,826.06,305.19,826.06,319.73Z"/><path class="cls-6" d="M814.47,338V735.37a23.87,23.87,0,0,1-1.18,7.46,24.66,24.66,0,0,1-18.66,17.09c-.2.2-.2.2-.4.2a10.45,10.45,0,0,1-4.32.39,1.15,1.15,0,0,1-.78.2H520a25.33,25.33,0,0,1-25.54-25.34V338a1.74,1.74,0,0,1,.2-1A25.21,25.21,0,0,1,520,312.65H789.13A25.41,25.41,0,0,1,814.47,338Z"/><rect class="cls-7" x="509.4" y="333.39" width="290.29" height="102.25" rx="1.68"/><rect class="cls-7" x="522.45" y="460.03" width="53.95" height="53.95" rx="1.74"/><rect class="cls-7" x="593.33" y="460.03" width="53.95" height="53.95" rx="1.74"/><rect class="cls-7" x="664.21" y="460.03" width="53.95" height="53.95" rx="1.74"/><rect class="cls-7" x="735.1" y="460.03" width="53.95" height="53.95" rx="1.74"/><rect class="cls-7" x="522.45" y="532.76" width="53.95" height="53.95" rx="1.74"/><rect class="cls-7" x="593.33" y="532.76" width="53.95" height="53.95" rx="1.74"/><rect class="cls-7" x="664.21" y="532.76" width="53.95" height="53.95" rx="1.74"/><rect class="cls-7" x="522.45" y="605.49" width="53.95" height="53.95" rx="1.74"/><rect class="cls-7" x="593.33" y="605.49" width="53.95" height="53.95" rx="1.74"/><rect class="cls-7" x="664.21" y="605.49" width="53.95" height="53.95" rx="1.74"/><path class="cls-7" d="M777,532.76H747.11a12,12,0,0,0-12,12V647.42a12,12,0,0,0,12,12H777a12,12,0,0,0,12-12V544.78A12,12,0,0,0,777,532.76Z"/><rect class="cls-7" x="522.45" y="678.22" width="53.95" height="53.95" rx="1.74"/><rect class="cls-7" x="593.33" y="678.22" width="53.95" height="53.95" rx="1.74"/><rect class="cls-7" x="664.21" y="678.22" width="53.95" height="53.95" rx="1.74"/><rect class="cls-7" x="735.1" y="678.22" width="53.95" height="53.95" rx="1.74"/><rect class="cls-14" x="517.83" y="464.42" width="53.95" height="53.95" rx="1.74"/><rect class="cls-15" x="588.71" y="464.42" width="53.95" height="53.95" rx="1.74"/><rect class="cls-15" x="659.59" y="464.42" width="53.95" height="53.95" rx="1.74"/><rect class="cls-14" x="730.48" y="464.42" width="53.95" height="53.95" rx="1.74"/><rect class="cls-14" x="517.83" y="537.15" width="53.95" height="53.95" rx="1.74"/><rect class="cls-14" x="588.71" y="537.15" width="53.95" height="53.95" rx="1.74"/><rect class="cls-15" x="659.59" y="537.15" width="53.95" height="53.95" rx="1.74"/><rect class="cls-14" x="517.83" y="609.88" width="53.95" height="53.95" rx="1.74"/><rect class="cls-14" x="588.71" y="609.88" width="53.95" height="53.95" rx="1.74"/><rect class="cls-15" x="659.59" y="609.88" width="53.95" height="53.95" rx="1.74"/><path class="cls-14" d="M772.41,537.15H742.49a12,12,0,0,0-12,12V651.82a12,12,0,0,0,12,12h29.92a12,12,0,0,0,12-12V549.17A12,12,0,0,0,772.41,537.15Z"/><rect class="cls-14" x="517.83" y="682.61" width="53.95" height="53.95" rx="1.74"/><rect class="cls-14" x="588.71" y="682.61" width="53.95" height="53.95" rx="1.74"/><rect class="cls-14" x="659.59" y="682.61" width="53.95" height="53.95" rx="1.74"/><rect class="cls-14" x="730.48" y="682.61" width="53.95" height="53.95" rx="1.74"/><path class="cls-13" d="M631.79,358h-2.56c-1.57,0-2.35,1-2.75,2.75v14.53c0,2-.19,2.75-.39,2.75,0,1.58-1.57,2.36-4.52,2.36H609.79c-1.77,0-2.75-.19-2.75-.39-1.57,0-2.16-1.57-2.16-4.72V360.78c0-1.57-1-2.55-2.75-2.75h-2.56c-1.57,0-2.55,1-2.75,2.75v19.05c0,1.57,1,2.56,3.15,2.75a3.81,3.81,0,0,1,2.35,1.77c.4,2.75,1.38,4.13,3.15,4.13h16.1c1.77,0,2.75.19,2.75.39,1.58,0,2.16,1.57,2.16,4.52v14.92c0,1.58,1,2.36,2.75,2.75h2.56c1.57,0,2.55-1,2.75-2.75V360.78C634.54,359.21,633.56,358.23,631.79,358Z"/><path class="cls-13" d="M649.47,358H641c-1.57,0-2.55,1-2.75,2.75v2.55c0,1.57,1,2.56,3.14,2.95,1.77,0,2.75,1.57,2.75,4.71v37.32c0,1.58.79,2.36,2.75,2.75h2.56c1.57,0,2.55-1,2.75-2.75V360.78C652.22,359.21,651.23,358.23,649.47,358Z"/><path class="cls-13" d="M690.52,363.73a3.65,3.65,0,0,1-2.36-1.58c-.39-2.75-1.37-4.12-3.14-4.12H664.59c-1.57,0-2.55,1-3,3-.39,1.37-.78,2-1.57,2.35-2.75.59-4.12,1.57-4.12,3.34v35.56c0,1.76,1,2.75,2.95,2.94,1.37.4,2.16,1,2.35,1.57.39,2.95,1.57,4.13,3.34,4.13H685c1.57,0,2.55-1,3-2.95a3,3,0,0,1,1.57-2.35c2.75-.4,4.12-1.58,4.12-3.34V366.67C693.66,365.1,692.68,364.12,690.52,363.73Zm-4.91,34.17c0,2-.2,2.75-.39,2.75,0,1.58-1.57,2.36-4.52,2.36H668.91c-1.76-.19-2.75-.19-2.75-.59-1.57,0-2.16-1.37-2.16-4.52V371c0-1.76.2-2.75.4-2.75,0-1.37,1.57-2.16,4.51-2.16H680.7c1.77,0,2.75.2,2.75.4,1.37,0,2.16,1.37,2.16,4.51Z"/><path class="cls-13" d="M734.91,379.83V366.67q0-2.35-2.94-2.94a3.62,3.62,0,0,1-2.36-1.58,4.62,4.62,0,0,0-2-3.73,3,3,0,0,0-1.38-.39H705.84c-1.57,0-2.55,1-2.75,3-.39,1.17-1,2.16-1.77,2.35-2.75.59-3.92,1.57-3.92,3.34v13.16a3.08,3.08,0,0,0,1.17,2.36c2.36.59,3.34,1.38,3.34,2.36,0,.39-.19.78-.78,1.37-2.56.39-3.73,1.57-3.73,3.34v13c0,1.76,1,2.75,2.94,2.94a3.8,3.8,0,0,1,2.36,1.77c.39,2.55,1.37,3.93,3.14,3.93h20.43c1.77,0,2.55-1,3-2.95a3.77,3.77,0,0,1,1.76-2.35c2.56-.4,3.93-1.58,3.93-3.34v-13a3.08,3.08,0,0,0-1.37-2.55c-2.16-.59-3.15-1.38-3.15-2.16a1.81,1.81,0,0,1,.59-1.38C733.74,382.58,734.91,381.4,734.91,379.83Zm-7.85,18.07c-.2,1.77-.2,2.75-.59,2.75,0,1.58-1.38,2.36-4.52,2.36H710.36c-2-.19-2.75-.19-2.75-.59-1.57,0-2.36-1.37-2.36-4.52v-4.32c.2-1.76.2-2.75.4-2.75,0-1.57,1.57-2.16,4.71-2.16H722c2,0,2.75,0,2.75.39,1.57,0,2.36,1.38,2.36,4.52Zm0-22.59c-.2,2-.2,2.75-.59,2.75,0,1.58-1.38,2.36-4.52,2.36H710.36c-2,0-2.75-.19-2.75-.39q-2.36,0-2.36-4.72V371c.2-1.76.2-2.75.4-2.75,0-1.37,1.57-2.16,4.71-2.16H722a5.92,5.92,0,0,1,2,.2c.59,0,.79,0,.79.2,1.57,0,2.36,1.57,2.36,4.51Z"/><path class="cls-13" d="M776.36,379.83V366.67c0-1.57-1-2.55-3.14-2.75a3.77,3.77,0,0,1-2.36-1.77c-.39-2.75-1.37-4.12-3.14-4.12H741.4c-1.58,0-2.56,1-2.75,2.75v2.55c0,1.57,1,2.56,2.75,2.75h22c1.76,0,2.75.2,2.75.4,1.37,0,2.16,1.57,2.16,4.51v4.52c0,1.77-.2,2.55-.4,2.55,0,1.58-1.57,2.36-4.51,2.36H747.29c-1.57,0-2.55,1-2.75,2.75v2.75c0,1.57.78,2.56,2.75,2.75H763.4c1.76,0,2.75.2,2.75.39,1.37,0,2.16,1.58,2.16,4.52v4.52c0,1.77-.2,2.55-.4,2.55,0,1.58-1.57,2.36-4.51,2.36h-22c-1.58,0-2.56,1-2.75,2.75v2.55c0,1.58.78,2.56,2.75,2.75h26.32q2.35,0,2.94-2.94a3.09,3.09,0,0,1,1.57-2.55c2.75-.4,4.13-1.38,4.13-3.15V389.26A3,3,0,0,0,775,386.9c-2.16-.59-3.33-1.37-3.33-2.35,0-.4.19-.79.78-1.38C775,382.58,776.36,381.6,776.36,379.83Z"/><path class="cls-16" d="M706.82,435.62a170.81,170.81,0,0,0-2,24.36,28.43,28.43,0,0,0,.2,4.12v1a85.92,85.92,0,0,0,8.44,32c1.38,2.55,3,4.91,4.52,7.27a47.75,47.75,0,0,0,8.25,9.43c6.88,6.28,15.52,10.6,23,16.5a33.5,33.5,0,0,1,3,2.55,30.4,30.4,0,0,1,4.32,4.32c21.22,22.2,27.11,56.18,27.7,87.61a161.87,161.87,0,0,1-2.56,33.59,3,3,0,0,1-.19,1.37,95,95,0,0,1-5.31,18.47,47.52,47.52,0,0,1-2.16,4.52,57.59,57.59,0,0,1-38.89,32,20.28,20.28,0,0,1-4.72,1.18,81,81,0,0,1-12.17,1.57,37.27,37.27,0,0,1-4.72.2c-14.53,0-29.66-2.75-43.41-6.68l-5.89-1.77c-1.57-.58-3.14-1.37-4.52-2a24.75,24.75,0,0,1-5.3-3.54,25,25,0,0,1-7.07-9.23,57.39,57.39,0,0,1-3.74-10.21c-.19-1.18-.58-2.16-.78-3.34a105.29,105.29,0,0,1-2.36-22.2v-.59a97.46,97.46,0,0,1,2.16-18.46,46,46,0,0,1,1.38-5.5c1-3.54,2.16-7.07,3.34-10.61,4.91-14.53,10.41-29.27,5.89-43.21a38.82,38.82,0,0,0-5.89-10.81,41.79,41.79,0,0,0-4.72-5.5c-4.52-4.71-10-8.84-15.32-12.76-6.48-4.72-12.77-9.43-19.25-14.15-1.77-1.37-3.54-2.55-5.3-3.93-10-7.46-20.24-14.92-30.25-22.39-.4-.2-.79-.59-1.18-.78-13.95-10.22-27.89-20.63-41.84-30.84-2.36-1.77-4.72-3.34-7.07-5.31a35.79,35.79,0,0,1-3.34-2.35c-7.07-5.31-14.15-10.61-20.82-16.31a19.5,19.5,0,0,1-3.74-3.34V338a1.74,1.74,0,0,1,.2-1l-.2-3.53c0-15.33,22-41.45,35-41.45H802.88a6.54,6.54,0,0,1,2,.2c-1.57,1-3.14,2-4.91,2.94-9.23,5.5-18.66,11.39-27.7,17.48a166.36,166.36,0,0,0-25.53,20.83,103.18,103.18,0,0,0-18.47,23.76c-.19.4-.39.79-.58,1.18a58.3,58.3,0,0,0-3.74,7.86,86.19,86.19,0,0,0-5.1,14.14,63.89,63.89,0,0,0-2.36,8.25c-1.18,4.72-2.36,9.43-3.34,14.34-.59,2.16-1,4.13-1.37,6.29-.2.59-.2,1-.4,1.57C709.77,419.12,708,427.37,706.82,435.62Z"/><path class="cls-17" d="M958.69,722.46H934.94c-14.67-5.6-34.93-9.07-57.32-9.07s-42.65,3.47-57.32,9.07H796.59v20.93h.09c0,.32-.12.63-.12,1,0,17.1,36.29,31,81.06,31s81.07-13.86,81.07-31c0-.32-.1-.63-.13-1h.13Z"/><ellipse class="cls-11" cx="877.62" cy="722.46" rx="81.07" ry="30.95"/><ellipse class="cls-18" cx="877.62" cy="722.46" rx="57.32" ry="21.89"/><path class="cls-19" d="M911.68,717.69a40,40,0,0,0-3.72-2c-.66-.38-1.48-.67-2.3-1l6.69-2.53-7.43-2.82-7.21,2.75a47,47,0,0,0-6.16-1.19,43.82,43.82,0,0,0-17.53.59,24.7,24.7,0,0,0-2.6.82,17.23,17.23,0,0,0-2,.89,5.55,5.55,0,0,0-.67.45c-3.12,1.93-2.75,4.23-.29,6.76a15.45,15.45,0,0,0,1.93,1.78c.22.15.52.37.81.59,3.42,2.68,4.16,4.24,2.08,5.35a4.86,4.86,0,0,1-.67.3c-3,1.11-7.65.67-12-1-4.91-1.86-7.8-4.16-9.22-6l-11.14,2.45c1.19,1.79,4.76,4.16,9.58,6.17l-7.2,2.75,7.43,2.89,7.72-3A52.89,52.89,0,0,0,879.37,734a32.07,32.07,0,0,0,6-1.56c6.76-2.6,7.36-5.57,1.49-10.25-.75-.67-1.41-1.19-1.93-1.71-2.38-2.23-2.68-3.42-.67-4.23s5.87-1,10.77.89a28.8,28.8,0,0,1,4.75,2.23h.08a22,22,0,0,1,3.49,2.89l10.77-2.45A15.33,15.33,0,0,0,911.68,717.69Z"/><path class="cls-17" d="M958.69,689.63H934.94c-14.67-5.6-34.93-9.07-57.32-9.07S835,684,820.3,689.63H796.59v20.93h.09c0,.32-.12.63-.12,1,0,17.1,36.29,31,81.06,31s81.07-13.86,81.07-31c0-.32-.1-.63-.13-1h.13Z"/><ellipse class="cls-11" cx="877.62" cy="689.63" rx="81.07" ry="30.95"/><ellipse class="cls-18" cx="877.62" cy="689.63" rx="57.32" ry="21.89"/><path class="cls-19" d="M911.68,684.86a37.51,37.51,0,0,0-3.72-2c-.66-.37-1.48-.67-2.3-1l6.69-2.52-7.43-2.83-7.21,2.75a48.71,48.71,0,0,0-6.16-1.19,42,42,0,0,0-4.31-.44,39.75,39.75,0,0,0-13.22,1,24.7,24.7,0,0,0-2.6.82,10.94,10.94,0,0,0-2.68,1.33c-3.12,1.93-2.75,4.24-.29,6.76a17.72,17.72,0,0,0,2.74,2.45,22.61,22.61,0,0,1,1.86,1.56c1.93,1.86,1.86,3.12-.45,4-3,1.12-7.65.67-12-1a26.28,26.28,0,0,1-4.16-1.93,17,17,0,0,1-5.06-4.08L840.29,691a12.48,12.48,0,0,0,3.94,3.2,33.23,33.23,0,0,0,5.64,2.89l-7.2,2.75,7.43,2.9,7.72-3a60.8,60.8,0,0,0,7.06,1.41,46,46,0,0,0,7.06.52,40.57,40.57,0,0,0,9.36-1,22.1,22.1,0,0,0,4.08-1.11c5.42-2.08,6.91-4.46,4.16-7.73a23.15,23.15,0,0,0-2.67-2.52c-.75-.67-1.41-1.19-1.93-1.71-2.38-2.23-2.68-3.42-.67-4.24s5.87-1,10.77.89a29.64,29.64,0,0,1,4.75,2.23h.08a21.88,21.88,0,0,1,3.49,2.9l10.77-2.45A14.83,14.83,0,0,0,911.68,684.86Z"/><path class="cls-17" d="M958.69,656.8H934.94c-14.67-5.6-34.93-9.07-57.32-9.07S835,651.2,820.3,656.8H796.59v20.93h.09c0,.32-.12.63-.12.95,0,17.1,36.29,31,81.06,31s81.07-13.86,81.07-31c0-.32-.1-.63-.13-.95h.13Z"/><ellipse class="cls-11" cx="877.62" cy="656.8" rx="81.07" ry="30.95"/><ellipse class="cls-18" cx="877.62" cy="656.8" rx="57.32" ry="21.89"/><path class="cls-19" d="M911.68,652a40,40,0,0,0-3.72-2c-.66-.37-1.48-.67-2.3-1l5.57-2.08,1.12-.45-7.43-2.82-1.86.74-2.9,1-2.45,1a47,47,0,0,0-6.16-1.19,44,44,0,0,0-17.53.59c-.89.23-1.79.52-2.6.82a11.29,11.29,0,0,0-2.68,1.34c-2.15,1.34-2.67,2.82-1.93,4.46v.07a8.37,8.37,0,0,0,1.64,2.23,18.25,18.25,0,0,0,2.74,2.45,16,16,0,0,1,1.94,1.63c1.85,1.86,1.78,3.05-.53,3.94-3,1.12-7.65.67-12-1a30.76,30.76,0,0,1-4.09-1.94,16.45,16.45,0,0,1-5.13-4.16l-11.14,2.53a13.52,13.52,0,0,0,3.94,3.27,51.23,51.23,0,0,0,5.64,2.9l-7.2,2.74,7.43,2.83,7.72-3a60.8,60.8,0,0,0,7.06,1.41,46.16,46.16,0,0,0,16.42-.52,22.1,22.1,0,0,0,4.08-1.12c2.83-1.11,4.61-2.23,5.2-3.56s.3-2.53-1-4.09a14.77,14.77,0,0,0-2.67-2.6c-.75-.67-1.41-1.19-1.93-1.71-2.38-2.23-2.68-3.41-.67-4.23s5.87-1,10.77.89a28.6,28.6,0,0,1,4.46,2.08c.14.07.22.15.29.15h.08a21.88,21.88,0,0,1,3.49,2.9l10.77-2.46A15.87,15.87,0,0,0,911.68,652Z"/><path class="cls-17" d="M958.69,624H934.94c-14.67-5.6-34.93-9.07-57.32-9.07S835,618.37,820.3,624H796.59V644.9h.09c0,.32-.12.63-.12,1,0,17.1,36.29,31,81.06,31s81.07-13.86,81.07-31c0-.32-.1-.63-.13-1h.13Z"/><ellipse class="cls-11" cx="877.62" cy="623.97" rx="81.07" ry="30.95"/><ellipse class="cls-18" cx="877.62" cy="623.97" rx="57.32" ry="21.89"/><path class="cls-19" d="M908,617.18c-.66-.37-1.48-.66-2.3-1l6.61-2.45.08-.07-.15-.08-7.28-2.74-7,2.67-.23.07a58.7,58.7,0,0,0-11.59-1.7h-.22a37.41,37.41,0,0,0-14.48,1.93,10.25,10.25,0,0,0-1.79.81,6.4,6.4,0,0,0-.89.52c-4.08,2.53-2.15,5.65,2.45,9.22a16,16,0,0,1,1.94,1.63c1.85,1.86,1.78,3-.53,3.94a6.34,6.34,0,0,1-1.7.44,21.43,21.43,0,0,1-10.25-1.41,29.58,29.58,0,0,1-4.09-1.93,16.59,16.59,0,0,1-5.13-4.16l-11.14,2.53a13.52,13.52,0,0,0,3.94,3.26,48,48,0,0,0,5.64,2.9l-7.2,2.75,7.43,2.82,7.72-3a56.89,56.89,0,0,0,7.06,1.41,47.79,47.79,0,0,0,15.38-.29,2.65,2.65,0,0,0,1-.23,22.1,22.1,0,0,0,4.08-1.11c3.42-1.34,5.28-2.75,5.5-4.46a4.37,4.37,0,0,0-1.34-3.19,14.44,14.44,0,0,0-2.67-2.6c-3.86-3.2-5-4.83-2.82-5.8.07-.07.14-.15.22-.15a11.81,11.81,0,0,1,6.24-.29A20.35,20.35,0,0,1,895,618.6c5.5,2.08,7.2,4.08,8.32,5.12l10-2.3h.22l.52-.15C913.09,620.08,911.31,618.74,908,617.18Z"/><path class="cls-17" d="M997.8,639.32,975,632.82c-12.57-9.41-31.11-18.29-52.64-24.43s-42-8.35-57.61-7l-22.81-6.49L836.17,615l.09,0c-.11.3-.3.58-.38.89-4.69,16.44,26.42,39.71,69.48,52s81.76,8.88,86.44-7.56c.09-.31.08-.64.14-1l.12,0Z"/><path class="cls-11" d="M997.77,639.32c-2.82,10-18.12,15.08-39.37,14.93-.89,0-1.78,0-2.67-.07A165.93,165.93,0,0,1,933.44,652q-5.34-.88-10.92-2.23a3.42,3.42,0,0,1-.81-.15c-3.42-.81-6.84-1.71-10.33-2.67h-.15c-2.75-.82-5.49-1.71-8.17-2.53-.44-.15-1-.37-1.41-.52s-1-.37-1.56-.52a191.06,191.06,0,0,1-19.83-8.09,1,1,0,0,0-.52-.23c-3.12-1.56-6-3.12-8.84-4.68-2.31-1.33-4.53-2.67-6.69-4a84.87,84.87,0,0,1-12.48-9.8,38.7,38.7,0,0,1-8.1-10.18,16.72,16.72,0,0,1-2.15-9.73.86.86,0,0,0,.07-.37c0-.08.08-.15.08-.23.07-.37.15-.74.22-1.11,1.12-3.79,4-6.91,8.47-9.29,14.49-7.87,44.94-7.65,78,1.71,21,6,39.15,14.64,51.7,23.85C993.17,620.68,1000.15,630.93,997.77,639.32Z"/><ellipse class="cls-18" cx="919.84" cy="617.11" rx="21.89" ry="57.32" transform="translate(74.3 1332.65) rotate(-74.1)"/><path class="cls-20" d="M952.24,620.08c-.45-.37-.89-.82-1.41-1.26s-1.19-1-1.86-1.56l7.06-.6-6.32-4.75-7.72.67c-8.62-5.05-18.2-7.58-25.33-7a10.86,10.86,0,0,0-3,.59,2.69,2.69,0,0,0-1.19.45c-2.52,1.33-2.23,3.78-.22,6.9-.08.08,0,.08.07.15a19.25,19.25,0,0,0,1.27,1.93,21,21,0,0,1,1.78,2.83c.82,1.78.3,2.67-1.71,3h-.22c-3.2.3-7.51-1.49-11.22-4.24a7,7,0,0,1-1.19-1,27.82,27.82,0,0,1-3-2.75,15.88,15.88,0,0,1-3-4.68l-11.43-.59a5.08,5.08,0,0,0,.89,1.7c.07.08.15.08.07.15a14.7,14.7,0,0,0,1.41,1.79,20.05,20.05,0,0,0,1.71,1.78c.52.52,1.12,1.11,1.71,1.63s1.19,1,1.78,1.49l-1,.07-6.61.6.6.44,5.71,4.31,3.57-.3,4.68-.37c9.14,5.43,19.31,8,26.52,7.28,5.87-.44,7.87-2.37,6.17-6.31a26.59,26.59,0,0,0-1.86-3.12c-2.68-3.86-3.42-5.8-1.56-6.24A1.41,1.41,0,0,1,928,613c2.3-.22,5.87.59,10.1,3.79a20.27,20.27,0,0,1,6.46,7c.08.08.08.15.15.22l11,.6c-.08-.22-.23-.37-.3-.6A19.19,19.19,0,0,0,952.24,620.08Z"/><path class="cls-21" d="M980,611.17c-4.9,1.26-9.73,2.82-14.34,4.23-.29.08-.66.22-1,.3-2.53.74-5,1.56-7.43,2.45-1.49.52-2.9,1-4.31,1.63-.3.08-.52.23-.74.3a82,82,0,0,0-7.73,3.64c-.15.08-.22.15-.37.22a52.59,52.59,0,0,0-7.43,4.68,45.52,45.52,0,0,0-5.57,5A38.76,38.76,0,0,0,925.5,641a28.23,28.23,0,0,0-1.64,2.89,31.54,31.54,0,0,0-2.15,5.72c-.08.08-.08.23-.15.37a14.6,14.6,0,0,0-.52,2.6,12.4,12.4,0,0,0-.3,1.71,35.62,35.62,0,0,0,.22,9.29,58,58,0,0,0,1.56,6.91,6.53,6.53,0,0,0,.3,1.11c.08.22.08.45.15.6l1.56,4.9c.45,1.48,1,3,1.49,4.53.44,1.34.89,2.67,1.26,4a11,11,0,0,1,.37,1.56,80.81,80.81,0,0,1,2.6,11.14,1.11,1.11,0,0,1,.15.67,23.15,23.15,0,0,1,.52,3A84.2,84.2,0,0,1,932,712.57a23.82,23.82,0,0,1,.23,3.26,6.85,6.85,0,0,1,.07,1.19,44.31,44.31,0,0,1-.15,4.46c-.22,3.94-1.11,7.8-3.27,10.77a11.77,11.77,0,0,1-2.3,2.45,16.88,16.88,0,0,1-7.8,3,33.15,33.15,0,0,1-3.79.6c-7.65.89-15.3,1.71-22.88.52A32,32,0,0,1,879.37,734a21.85,21.85,0,0,1-6.1-5.87,4.17,4.17,0,0,1-.37-.52,21.21,21.21,0,0,1-2.52-5.42,11,11,0,0,1-.37-1.71,19.48,19.48,0,0,1-.6-6.91c-.07-.15,0-.22,0-.37a17.91,17.91,0,0,1,.15-1.93,12.49,12.49,0,0,1,.3-1.71,36.45,36.45,0,0,1,2.08-7.8,5.2,5.2,0,0,1,.44-1,52.73,52.73,0,0,1,4.76-9.28c.22-.37.52-.74.74-1.12.59-.89,1.26-1.78,1.86-2.67,1.7-2.38,3.41-4.68,5.2-7,.59-.74,1.11-1.49,1.7-2.31a6.81,6.81,0,0,0,.6-.81,5.15,5.15,0,0,0,.74-1,69.05,69.05,0,0,0,5.43-7.95,39.26,39.26,0,0,0,2.15-3.71,47,47,0,0,0,2.3-5.2c.37-1,.67-1.94,1-3a20.07,20.07,0,0,0,.67-3,.14.14,0,0,0,0-.22,29.43,29.43,0,0,0,.66-4.53,26.58,26.58,0,0,0,0-3.57,2.36,2.36,0,0,0-.07-1.26,1.62,1.62,0,0,0,0-.82,36.66,36.66,0,0,0-1-6.83,24,24,0,0,0-1-3.86,43.61,43.61,0,0,0-2.23-5.95c-.74-1.63-1.56-3.27-2.45-4.83a34.81,34.81,0,0,0-2.82-4.45,3.9,3.9,0,0,0-.45-.6,10.58,10.58,0,0,0-1-1.48l-.07-.08a12.82,12.82,0,0,0-1.34-1.63c-.45-.6-1-1.19-1.49-1.78s-1-1.19-1.63-1.79c.08-.07,0-.07-.07-.15a68.63,68.63,0,0,0-8.4-7.72,16.07,16.07,0,0,0-1.26-1.12q-3.12-2.44-6.46-4.68c-1.49-1-3-2-4.46-2.89-3-1.93-6-3.72-9.14-5.42-1.48-.82-2.89-1.64-4.38-2.46,14.49-7.87,44.94-7.65,78,1.71C949.34,593.34,967.47,602,980,611.17Z"/><g class="cls-22"><path d="M353.48,411.38V335.85a13.27,13.27,0,0,0-13.27-13.27H333.9v-5.06a5.82,5.82,0,0,0-11.64,0v5.06H252.75v-5.06a5.82,5.82,0,0,0-11.64,0v5.06H234.8a13.27,13.27,0,0,0-13.27,13.27v75.53a22.16,22.16,0,0,0,22.16,22.16h87.63A22.16,22.16,0,0,0,353.48,411.38Z"/><path d="M584.38,734c2.27,10.86-1.67,50.9-7.8,88.93-8.67.17-17.44.26-26.2.26.27-23.22.09-47.23-1.66-56.34-2.37-12.44-24.53-3.5-47.49-8.5,6.57,27,8.76,54.76.26,64.58-30.84-.53-61.33-1.76-90.94-3.51,19.89-6.66,39-13.58,46.26-17.7,16-9.11-16.73-42.14-12.18-79.55a10.72,10.72,0,0,1-1.84-1.4c-3.59-22.87-5.87-43.81-6.39-61.68-1-29.7,2.71-51,12.44-58.53,5.08-2.71,13.31-4.12,22.69-4.38a27.54,27.54,0,0,0,1.93-6.66l-14.11-12.88-9.9-27,29.88-19.89,19,9.55,8.59,20.41s-3,.09-6.93.09c1.84,12.09.09,29.35-8.93,31.8a6.33,6.33,0,0,1-1.75.44,45.63,45.63,0,0,0,.78,5.08,100.41,100.41,0,0,1,20.33,4.74v-.18l36.8,7.8L569,558.2l-1.49-.44,4.55-6.92s-3.85-7.1-2.28-8.15,2.37,2,4.21,1.49-2.89-6.84.44-8.85,10.86,4.55,11,10.42a10.08,10.08,0,0,1-3.16,8.07l.7,8.41-1.83-.53c-4.47,28.39-10.69,54.67-20.94,66.94-4.56,4.73-26.11,6-40.48,5,.87,17.44-.27,33.73-.53,48.54a157.05,157.05,0,0,0,1.14,28.39C550.82,713.19,580.78,721.07,584.38,734Z"/></g><path class="cls-23" d="M1035.78,641.6c-1.54,2.19-5.47,3.92-9.7,4.9-4.52,1.11-9.46,1.37-12.12.56a76.33,76.33,0,0,0-10.33,11.07c8.47-4.92,20.95-2.18,23.78,1.26a3.78,3.78,0,0,1,.51.84l-.43.49c-5.43,6.16-25.53,9-29.18,5.41A90.78,90.78,0,0,0,988,697.07c7.86-13.06,30-14.46,33.65-9.93-3,10-28.36,22.47-34.64,19.24-.26,3.23-.36,6.51-.36,9.78a139,139,0,0,0,1,16c.37,3.4.88,6.74,1.45,10.12,6-13,22.83-17.93,33.73-17.55,4.55.07,8,1.08,9.37,2.78-1.39,4.74-6.74,9.82-13.15,14.16a1.56,1.56,0,0,0-.45.28,72.4,72.4,0,0,1-13.2,6.91c-5.62,2.35-10.85,3.6-14.25,3.2.48,1.86.9,3.77,1.43,5.68a192.06,192.06,0,0,0,9.22,26.29,16.57,16.57,0,0,1-.92,1.59c-.37.63-.74,1.27-1.16,2-2.38-5.37-4.51-10.9-6.45-16.55-3,3.3-14.75,1.9-25.82-2a69.24,69.24,0,0,1-10.4-4.55c-5-2.7-9-5.87-10.74-9.18,2.51-4.71,19.09-7.49,32.24-2.14a27.28,27.28,0,0,1,11.73,8.51c-1.37-4.67-2.54-9.45-3.55-14.18-.82-4-1.47-7.93-2-11.93a148.62,148.62,0,0,1-1.35-16.46,1,1,0,0,1,0-.41c-3.83,1.72-13.22.17-21.65-3.13a46.08,46.08,0,0,1-6.73-3c-4.07-2.25-7.25-4.85-8.65-7.52,1.33-2.49,7.55-4.31,14.61-4a30.63,30.63,0,0,1,9.08,1.47c5.36,1.55,10.36,4.61,13.38,9.58a108.79,108.79,0,0,1,5.54-32.79c-6.82,2-27.51-4.54-31.41-12.11,2.55-4.86,26.34-6.77,33,7.77a79.6,79.6,0,0,1,10.94-19.28c-4.54.24-14-3-16-6.8,1.41-2.7,14.37-3.77,18.14,4.17a71.58,71.58,0,0,1,8.84-8.73l-.05-.05c2.73-4.51,7.73-6.16,12.38-6.2C1030.18,637.82,1035.11,639.76,1035.78,641.6Z"/><path class="cls-13" d="M992.54,757.71c1.56,2.92,3,6,4.3,9.08-.24-7,3.75-13.42,8.52-18s10.27-7.28,13.2-6.91a.61.61,0,0,1,.32.09l.46.12c1.09,5.09-2.62,13.55-7.29,20.38-4.29,6.5-9.49,11.53-12.48,11.1,1,2.95,2.11,5.9,3,8.9a11,11,0,0,1-.82,1.49,16.57,16.57,0,0,1-.92,1.59,141.76,141.76,0,0,0-9.13-24c-3.59,3.76-14.92,7.13-24.3,7.41-4.64.14-8.71-.47-11.22-2.2a3.94,3.94,0,0,1,.82-2.35c2.68-4.56,12-10.82,21.5-11.32a19.47,19.47,0,0,1,9.77,1.79A115.56,115.56,0,0,0,972.5,733c-2.2,4.89-22.88,9.72-29.34,5.27-.12-4.33,13.51-14,24.28-10.21a67.72,67.72,0,0,0-20.8-13c-.36,3.9-14.19,12.18-20,10.61-1-2.8,5.35-11.53,13.19-12.79a54.12,54.12,0,0,0-11.28-1.48c-2.25,3.31-11.23,8.26-15.28,7.19-1-2.69,6.82-12.53,14.82-9.61a55.59,55.59,0,0,1,9.3.89c-1.58-6.39,6.4-12,8.5-11.06.7,3.13-3.34,9.56-6.07,11.57a60.72,60.72,0,0,1,15.55,6,13,13,0,0,1-.4-3.91c.33-4.51,2.88-8.61,6-11.56,3.76-3.61,8.08-5.57,10-4.77a12.32,12.32,0,0,1-.89,6.24,37.12,37.12,0,0,1-8.31,13.14,12.32,12.32,0,0,1-3.36,2.61,83.09,83.09,0,0,1,18.86,16.43c-.84-6,2.23-11.58,6.17-15.5a27.1,27.1,0,0,1,3.24-2.91c3.56-2.63,7.16-4,8.84-3.27,1,4.79-3.14,13.38-7.83,19.24a31.71,31.71,0,0,1-2.9,3.4,10.8,10.8,0,0,1-4.31,2.93,96.09,96.09,0,0,1,6.29,9C988.78,750.75,990.74,754.2,992.54,757.71Z"/><path class="cls-6" d="M995.33,593.88c1.37,3.24,5.91,6.55,11,9,5.48,2.67,11.72,4.39,15.34,4.11a99.14,99.14,0,0,1,10.12,17c-9.46-8.68-26.19-8.67-30.76-5a4.56,4.56,0,0,0-.89.93l.41.74c5.23,9.4,30.13,18.67,35.8,15.09a118.84,118.84,0,0,1,4.59,42.47c-6.4-18.91-34.37-26.9-40.24-22.13,1,13.69,30,36.68,38.91,34.31-.58,4.2-1.37,8.42-2.28,12.6a184.38,184.38,0,0,1-5.76,20.14c-1.42,4.25-3,8.37-4.7,12.54-4-18.28-24.16-29.32-38.21-31.88-5.84-1.18-10.52-.85-12.76.93.44,6.45,5.86,14.45,12.85,21.79a1.63,1.63,0,0,1,.49.49,95.46,95.46,0,0,0,15,12.53c6.53,4.57,12.87,7.64,17.33,8.08-1.13,2.24-2.21,4.57-3.42,6.86a251.63,251.63,0,0,1-19.14,31,16.92,16.92,0,0,0,.73,2.3c.29.91.59,1.83.93,2.83,4.54-6.2,8.82-12.68,12.89-19.36,2.92,5.07,18.32,6.56,33.57,4.67a90.12,90.12,0,0,0,14.57-2.91c7.18-2,13.22-5,16.31-8.74-1.9-6.71-22.32-14.91-40.64-11.75a35.64,35.64,0,0,0-17.37,7.6c3-5.59,5.89-11.37,8.51-17.14,2.15-4.87,4.1-9.73,5.87-14.7a195.46,195.46,0,0,0,6.32-20.68,1.55,1.55,0,0,0,.15-.52c4.41,3.28,16.85,3.92,28.56,2.06a61.78,61.78,0,0,0,9.46-2c5.84-1.74,10.63-4.18,13.16-7.21-1-3.54-8.44-7.61-17.55-9.25a40.57,40.57,0,0,0-12-.66c-7.28.49-14.52,3-19.78,8.5,2.83-14.73,3.76-29.39,2.09-43.47,8.17,4.42,36.45,1.88,43.56-6.7-1.91-6.93-31.79-16-44.41.7a104.2,104.2,0,0,0-8.6-27.72c5.73,1.57,18.8,0,22.38-4.22-1.06-3.84-17.32-8.84-24.37.25a94.56,94.56,0,0,0-8.87-13.64l.09,0c-2.23-6.54-8.17-10-14.1-11.39C1003.56,590.61,996.72,591.71,995.33,593.88Z"/><path class="cls-13" d="M1018.14,754.47c-2.82,3.29-5.49,6.83-8,10.4,2.27-8.92-1-18.2-5.87-25.34s-11.09-12.19-15-12.53a.65.65,0,0,0-.42,0l-.63,0c-2.82,6.21-.45,18.06,3.62,28.11,3.67,9.51,8.91,17.39,12.85,17.69-2.17,3.47-4.35,6.95-6.34,10.54a13.06,13.06,0,0,0,.64,2.12,16.92,16.92,0,0,0,.73,2.3,185.08,185.08,0,0,1,18.38-28.13c3.55,5.8,17.09,13.28,29,16.27,5.89,1.48,11.27,1.84,15,.32a5.25,5.25,0,0,0-.4-3.23c-2.14-6.58-12.36-17.21-24.33-20.49a25.4,25.4,0,0,0-13-.45,151.11,151.11,0,0,1,26.31-23.57c1.44,6.86,26.54,18.83,36,15,1.36-5.51-13.36-21.72-28.19-19.86a88.7,88.7,0,0,1,30.24-10.85c-.63,5.09,14.74,19.55,22.62,19.16,2.06-3.29-3.62-16.23-13.28-20a71,71,0,0,1,14.83,1.25c2,4.86,12,13.72,17.53,13.48,2-3.17-5.22-17.94-16.26-16.45a74.36,74.36,0,0,0-12.14-1.45c3.8-7.73-4.84-17.07-7.78-16.52-1.77,3.79,1.59,13.15,4.52,16.49a79.82,79.82,0,0,0-21.57,3.34,16.84,16.84,0,0,0,1.61-4.88c.84-5.87-1.27-11.82-4.39-16.46-3.79-5.66-8.77-9.38-11.41-8.88-.93,2-1,5-.62,8.22a48.88,48.88,0,0,0,7,19.13,16.07,16.07,0,0,0,3.56,4.28,108.74,108.74,0,0,0-28.71,15.74c2.76-7.47.38-15.44-3.56-21.56a34.87,34.87,0,0,0-3.32-4.63c-3.83-4.36-8-7.09-10.39-6.65-2.58,5.86.27,18,4.63,26.79a40.2,40.2,0,0,0,2.76,5.17,14,14,0,0,0,4.69,5A122,122,0,0,0,1028.5,743C1024.9,746.62,1021.43,750.48,1018.14,754.47Z"/><path class="cls-6" d="M322,317.37v54.8A21.52,21.52,0,0,1,311.41,391a21.09,21.09,0,0,1-11.59,3.34h-87.6A22.39,22.39,0,0,1,192,381.21a23.49,23.49,0,0,1-2-9v-54.8Z"/><path class="cls-15" d="M322,296.55v20.82H190V296.55a13.1,13.1,0,0,1,9-12.38,10.54,10.54,0,0,1,4.32-.78H308.86A13.16,13.16,0,0,1,322,296.55Z"/><path class="cls-6" d="M221.25,278.28v10.21a5.8,5.8,0,0,1-11.59,0V278.28a5.8,5.8,0,1,1,11.59,0Z"/><path class="cls-6" d="M302.57,278.28v10.21a5.89,5.89,0,0,1-11.78,0V278.28a6,6,0,0,1,5.89-5.89,5.87,5.87,0,0,1,5.7,4.71A2.57,2.57,0,0,1,302.57,278.28Z"/><path class="cls-24" d="M234.22,329.55l-16.9,13.55,5.31,6.68,6.09-4.91a51.15,51.15,0,0,0,3.92-3.73l-.19,5.5-.2,5.1v30.45h11.2V329.55Z"/><path class="cls-24" d="M257,329.55V339h26.13l-19.84,43.21h11.59l16.3-37.13,3.73-8.44v-7.07Z"/><path class="cls-25" d="M311.41,391a21.09,21.09,0,0,1-11.59,3.34h-87.6A22.39,22.39,0,0,1,192,381.21c2.56-2.36,5.11-4.72,7.47-7.27a77.48,77.48,0,0,0,14.93-23c2.75-6.48,4.71-13.36,4.71-20.23a44.28,44.28,0,0,0-2.36-13.36c-2.16-6.68-5.69-13.16-9.42-19.45-2.75-4.52-5.7-9-8.25-13.75a10.54,10.54,0,0,1,4.32-.78h6.28v-5.11a5.8,5.8,0,1,1,11.59,0v5.11h69.54v-5.11a6,6,0,0,1,5.89-5.89,5.87,5.87,0,0,1,5.7,4.71,8.44,8.44,0,0,0-1.38.79c-2.55,1.76-5.3,3.53-7.66,5.5a29.57,29.57,0,0,0-2.55,2.35,28.16,28.16,0,0,0-5.89,6.88c-4.52,7.27-5.51,16.11-4.33,24.75a65.09,65.09,0,0,0,3.15,12.18c.39.78.59,1.57,1,2.35a116.24,116.24,0,0,0,6.48,13.16c4.32,7.47,9.23,14.93,13,22.79A79.62,79.62,0,0,1,311.41,391Z"/><path class="cls-26" d="M327.27,813.29a16.73,16.73,0,0,0-7,3.44C317,819.51,307.13,803,307.13,803a89.56,89.56,0,0,1,10.27-3.34,32.22,32.22,0,0,1,9.13-1.31Z"/><path class="cls-19" d="M415.25,673c-12.91,41.39,27.57,79.6,10.13,89.56s-103.32,35.75-103.32,35.75c-1.57,3.88,1.83,12.55,6,15.74C371.16,811,453.61,794.31,468,785.64c18-12.14,1.24-84.84-16-115.23Z"/><path class="cls-19" d="M310.83,800.4c-4.88,0-8.5,1.59-10.8,4.88,6.72,12.13,13,24.11,19.92,35,4.31-2.46,3.51-17.2,1.61-24.6A21.67,21.67,0,0,1,310.83,800.4Z"/><path class="cls-26" d="M533.49,836.88a16.67,16.67,0,0,0,1,7.75c1.57,4-17.29,8-17.29,8a90.27,90.27,0,0,1,.17-10.8,31.78,31.78,0,0,1,1.73-9.06Z"/><path class="cls-19" d="M432.08,688.14c27.21,54.09,81.44,19.76,85.21,39.49s.34,109.33.34,109.33c3.17,2.75,12.47,2.33,16.83-.56,11.08-41.78,22-125.19,18.46-141.56-5.66-20.93-79.86-28.67-114.19-22.23Z"/><path class="cls-19" d="M516,848.26c-1.6,4.61-1.25,8.55,1.12,11.79,13.65-2.42,27-4.45,39.59-7.48-.93-4.89-15.13-8.9-22.75-9.5A21.65,21.65,0,0,1,516,848.26Z"/><path class="cls-7" d="M411.38,681.62c9.92,10.15,64.7,7.79,79.64-.77-8.89-29.6,3.29-69.26-6.26-115.79-18.88-9.26-54.05-10.74-67.35-3.66C401.78,573.47,401.83,620.61,411.38,681.62Z"/><path class="cls-26" d="M438.81,559.76c3.19-5.4,3.82-11.49,4.1-18.39h14.67c-.22,6.73-.07,13.55,2,20.46C458.05,564.7,440.25,563.57,438.81,559.76Z"/><path class="cls-26" d="M437.29,545c8.52,3.83,14.58,10.73,22.33,7.39,10.93-2.9,11.17-27.54,7.43-38.53l-29.72-3.47Z"/><path class="cls-27" d="M427.89,537.42l17.42,15.9,11.3-13.9L449,531.56l3.51-4.75,4.15,5.19,2.73-3.14-2.11-8.8a140.61,140.61,0,0,0,18.29.44L467,500.13l-19-9.57L418,510.43Z"/><path class="cls-7" d="M479,562.47l36.8,7.82,24.83-58.68,10.24,3C546.39,545.84,540,576,528.79,589.42c-5.69,5.83-37.38,6.41-49.21,3.91Z"/><path class="cls-26" d="M550.88,514.59s3.26-2.59,3.11-8.07c-.16-5.84-7.6-12.46-11-10.45s1.32,8.36-.48,8.89-2.57-2.54-4.16-1.51,2.29,8.16,2.29,8.16Z"/><polygon class="cls-19" points="540.63 511.61 536.07 518.53 551.53 523.04 550.88 514.59 540.63 511.61"/></g></g></g></svg>